<svg width="100" height="100" viewBox="0 0 100 100" fill="none" xmlns="http://www.w3.org/2000/svg">
<path d="M59.7237 40.4587L88.1641 49.8165L50.3659 49.8165L59.7237 40.4587Z" fill="#403D3D"/>
<path d="M41.009 41.0092L50.3668 12.5688V50.367L41.009 41.0092Z" fill="#403D3D"/>
<path d="M41.009 59.3578L12.5686 50L50.3668 50L41.009 59.3578Z" fill="#403D3D"/>
<path d="M59.7236 59.3578L50.3658 87.7982L50.3658 50L59.7236 59.3578Z" fill="#403D3D"/>
<path d="M41.0097 40.8257L31.6519 31.6514L35.6886 42.844L41.0097 40.8257Z" fill="#403D3D"/>
<path d="M59.3569 59.3578L68.8982 68.8991L64.8615 57.7064L59.3569 59.3578Z" fill="#403D3D"/>
<path d="M41.137 59.3593L31.5957 68.9006L42.7884 64.8639L41.137 59.3593Z" fill="#403D3D"/>
<path d="M57.3392 34.4037L69.2048 31.5596L59.7245 40.6422L57.3392 34.4037Z" fill="#403D3D"/>
<circle cx="50" cy="50" r="39.5" stroke="#403D3D"/>
</svg>
